<svg xmlns="http://www.w3.org/2000/svg" viewBox="0 0 102.14 137.27">
  <g id="Layer_2" data-name="Layer 2">
    <g id="Layer_1-2" data-name="Layer 1">
      <path d="M46.13,6.61Q39.72,0,27.82,0H0V51.41H25.24A50.12,50.12,0,0,0,36,50.46a18.35,18.35,0,0,0,7-3,21.42,21.42,0,0,0,7-9.07,32.35,32.35,0,0,0,2.5-13Q52.54,13.23,46.13,6.61ZM24.46,31.32a6,6,0,1,1,6-6A6,6,0,0,1,24.46,31.32Z"/>
      <path d="M73,28.13H61.57L32.8,79h69.34ZM67.5,64.43a6,6,0,1,1,6-6A6,6,0,0,1,67.5,64.43Z"/>
      <path d="M60.19,84,45.05,104.85,29.27,84H12.92v53.3H28.38V114.19l10.85,23.08h11l10.85-23.08v23.08H76.54V84ZM44.63,124a6,6,0,1,1,6-6A6,6,0,0,1,44.63,124Z"/>
    </g>
  </g>
</svg>
