<?xml version="1.0" encoding="UTF-8"?>
<svg id="_레이어_2" data-name="레이어 2" xmlns="http://www.w3.org/2000/svg" viewBox="0 0 382.35 137.27">
  <defs>
    <style>
      .cls-1 {
        fill: #fff;
      }
    </style>
  </defs>
  <g id="Layer_1" data-name="Layer 1">
    <g>
      <g>
        <polygon class="cls-1" points="305.73 77.9 302.1 74.27 298.46 77.9 286.79 89.57 290.42 93.2 302.1 81.53 313.67 93.1 317.3 89.47 305.73 77.9"/>
        <path class="cls-1" d="M262.26,99.25v38h5.13v-38h-5.13m-15.49,1.5h-14.66c-3.78,0-6.85,3.07-6.85,6.85v14.81c0,3.78,3.08,6.84,6.85,6.84h14.66c3.78,0,6.85-3.06,6.85-6.84v-14.81c0-3.78-3.07-6.85-6.85-6.85m1.72,21.66c0,.95-.77,1.72-1.72,1.72h-14.66c-.95,0-1.72-.77-1.72-1.72v-14.81c0-.95,.77-1.73,1.72-1.73h14.66c.95,0,1.72,.77,1.72,1.73v14.81Z"/>
        <path class="cls-1" d="M157.16,99.25v9.84h-5.8v-9.84h-5.13v38h5.13v-23.04h5.8v23.04h5.14v-38h-5.14m-38,8.3v8.66c0,3.78,3.08,6.85,6.85,6.85h21.03v-5.12h-21.03c-.94,0-1.72-.78-1.72-1.73v-8.66c0-.95,.78-1.71,1.72-1.71h15.14v-5.14h-15.14c-3.77,0-6.85,3.07-6.85,6.85Z"/>
        <path class="cls-1" d="M217.57,115.93h-6.45v-8.45c0-5.89-1.69-8.14-8.14-8.14h-28.75v5.13h28.75c2.46,0,3.01,1.35,3.01,3v8.45h-37.33v5.13h20.67l.04,16.19h5.12s-.03-16.19-.03-16.19h23.11v-5.13Z"/>
        <path class="cls-1" d="M328.58,104.8v-5.12h-53.2v5.12h23.74v5.6h-13.24v5.13h26.11c1.79,0,1.97,1.49,1.97,2.85s-.18,2.79-1.97,2.79h-21.67c-4.81,0-5,3.49-5,7.74v.13c0,2.94-.27,8.23,5,8.23h28.86v-5.13h-26.17c-2.55,0-2.55-1.84-2.55-3.17h0c0-1.55,0-2.68,2.55-2.68h20.94c4.63,0,4.9-2.36,5.1-6.32h.04v-3.26h-.04c-.2-3.97-.56-6.33-5.19-6.33h-9.61v-5.6h24.33Z"/>
        <path class="cls-1" d="M359.5,107.7v4.31h5.12v-5.88c0-4.49-2.08-6.57-6.56-6.57h-21.68v5.12h20.1c2.62,0,3.01,1.35,3.01,3.01m16.46,17.86v-13.43h6.39v-5.13h-6.39v-8.54h-5.14v17.09h-20.7v-7.88h-5.13v7.88h-12.34v5.13h7.2v9.67c0,4.49,2.2,6.23,6.68,6.23h29.78v-5.13h-28.32c-1.66,0-3.01-.35-3.01-3v-7.78h25.84v4.88h5.14Z"/>
      </g>
      <path class="cls-1" d="M46.13,6.61C41.86,2.21,35.76,0,27.82,0H0V51.41H25.24c4.36,0,7.94-.32,10.74-.95,2.8-.63,5.14-1.65,7.02-3.04,3.03-2.2,5.37-5.23,7.04-9.07,1.66-3.84,2.5-8.16,2.5-12.96,0-8.11-2.14-14.36-6.4-18.77ZM24.46,31.32c-3.32,0-6.02-2.7-6.02-6.02s2.7-6.02,6.02-6.02,6.02,2.7,6.02,6.02-2.7,6.02-6.02,6.02Z"/>
      <path class="cls-1" d="M72.98,28.13h-11.4l-28.77,50.86H102.14l-29.16-50.86Zm-5.48,36.3c-3.32,0-6.02-2.7-6.02-6.02s2.7-6.02,6.02-6.02,6.02,2.7,6.02,6.02-2.7,6.02-6.02,6.02Z"/>
      <path class="cls-1" d="M60.19,83.97l-15.14,20.88-15.78-20.88H12.92v53.31h15.46v-23.08l10.85,23.08h11l10.85-23.08v23.08h15.46v-53.31h-16.35Zm-15.56,40.06c-3.32,0-6.02-2.7-6.02-6.02s2.7-6.02,6.02-6.02,6.02,2.7,6.02,6.02-2.7,6.02-6.02,6.02Z"/>
    </g>
  </g>
</svg>