<?xml version="1.0" encoding="UTF-8"?>
<svg id="_레이어_2" data-name="레이어 2" xmlns="http://www.w3.org/2000/svg" viewBox="0 0 123.14 120.5">
  <g id="Layer_1" data-name="Layer 1">
    <path d="M108.13,15.5C98.12,5.17,83.82,0,65.21,0H0V120.5H59.17c10.23,0,18.62-.74,25.17-2.22,6.55-1.48,12.04-3.86,16.45-7.13,7.1-5.17,12.59-12.25,16.49-21.26,3.9-9.01,5.85-19.13,5.85-30.38,0-19-5-33.67-15.01-44Zm-50.8,57.91c-7.79,0-14.11-6.32-14.11-14.11s6.32-14.11,14.11-14.11,14.11,6.32,14.11,14.11-6.32,14.11-14.11,14.11Z"/>
  </g>
</svg>